<?xml version="1.0" standalone="no"?>
<!DOCTYPE svg PUBLIC "-//W3C//DTD SVG 20010904//EN"
 "http://www.w3.org/TR/2001/REC-SVG-20010904/DTD/svg10.dtd">
<svg version="1.0" xmlns="http://www.w3.org/2000/svg"
 width="165.000000pt" height="165.000000pt" viewBox="0 0 165.000000 165.000000"
 preserveAspectRatio="xMidYMid meet">
<metadata>
Created by potrace 1.14, written by Peter Selinger 2001-2017
</metadata>
<g transform="translate(0.000000,165.000000) scale(0.100000,-0.100000)"
fill="#000000" stroke="none">
<path d="M803 1515 l-162 -112 22 -21 c12 -11 46 -30 75 -42 70 -30 112 -78
112 -130 0 -52 -8 -68 -41 -85 -42 -22 -114 -19 -160 7 -45 25 -68 55 -89 117
-27 80 -22 81 -299 -108 -138 -95 -253 -177 -256 -181 -5 -8 89 -100 103 -100
4 0 23 11 42 25 20 15 47 25 67 25 49 0 46 -37 -7 -76 -22 -16 -40 -32 -40
-36 0 -3 54 -57 120 -119 66 -62 120 -119 120 -126 0 -19 -39 -39 -104 -52
-42 -9 -69 -23 -98 -49 -52 -47 -68 -80 -68 -142 0 -142 132 -230 257 -169 61
29 100 83 119 165 8 38 20 74 26 81 16 20 59 4 98 -36 20 -20 69 -68 111 -107
l74 -72 29 40 c24 33 33 39 59 36 43 -4 46 -29 8 -77 -17 -21 -31 -43 -31 -48
0 -4 22 -30 50 -56 l49 -47 24 33 c39 51 292 409 310 438 15 23 15 27 1 47 -8
12 -38 28 -68 37 -83 24 -136 89 -136 167 0 71 48 107 126 95 53 -9 88 -40
128 -117 20 -38 42 -70 49 -70 9 0 184 243 221 307 4 7 -8 28 -28 50 -34 37
-35 37 -55 19 -11 -10 -27 -16 -36 -13 -20 8 -19 41 1 57 13 12 5 24 -65 94
-45 45 -81 87 -81 94 0 12 3 13 40 16 30 2 60 33 60 61 0 54 -39 103 -103 130
-36 15 -38 15 -62 -9 -16 -16 -25 -36 -25 -56 0 -25 -4 -30 -24 -30 -14 0 -33
10 -43 23 -11 12 -45 47 -76 77 -44 42 -59 52 -69 42 -14 -14 -54 -16 -62 -3
-3 5 3 20 14 33 19 25 19 25 -3 45 -53 48 -50 49 -224 -72z m447 -307 c0 -4
-6 -5 -14 -2 -11 4 -13 -1 -6 -29 l8 -35 -34 5 c-28 5 -34 2 -34 -12 0 -11 -5
-15 -15 -12 -20 8 -105 -73 -105 -100 0 -12 5 -25 10 -28 16 -10 11 -72 -7
-90 -13 -13 -29 -16 -70 -13 -53 5 -54 4 -113 -50 -63 -56 -70 -71 -45 -92 28
-23 15 -32 -15 -10 -33 23 -33 24 -30 -38 l2 -43 -46 6 c-39 6 -46 5 -46 -9 0
-9 7 -28 16 -41 27 -42 -3 -29 -59 24 -55 53 -59 78 -7 41 l32 -23 -3 53 -4
52 48 -5 c39 -5 47 -3 47 10 0 9 -7 25 -17 35 -19 21 -5 24 21 5 16 -12 24 -8
65 32 56 55 85 97 71 106 -6 3 -10 22 -10 40 0 47 34 70 93 62 42 -6 45 -4 95
45 41 40 50 54 41 64 -8 10 -8 14 -1 14 6 0 14 -4 17 -10 14 -22 26 -9 20 21
-7 31 -6 31 24 27 25 -4 31 -1 31 14 0 16 3 16 20 6 11 -7 20 -16 20 -20z"/>
</g>
</svg>
